HIERARCHY
ROOT Hips
{
	OFFSET 0.000000 0.000000 0.000000 
	CHANNELS 6 Xposition Yposition Zposition Yrotation Zrotation Xrotation 
	JOINT Lumbar
	{
		OFFSET 0.000000 0.000000 0.000000 
		CHANNELS 3 Zrotation Xrotation Yrotation
		JOINT Neck
		{
			OFFSET 0.000000 0.445665 0.000000 
			CHANNELS 3 Zrotation Xrotation Yrotation
			End Site
			{
				OFFSET 0.000000 0.227535 0.000000 
			}
		}
		JOINT RightShoulder
		{
			OFFSET 0.019635 0.377685 0.194865 
			CHANNELS 3 Zrotation Xrotation Yrotation
			JOINT RightElbow
			{
				OFFSET 0.000000 -0.243375 0.000000 
				CHANNELS 2 Zrotation Yrotation
				JOINT RightWrist
				{
					OFFSET 0.000000 -0.264825 0.000000 
					CHANNELS 2 Zrotation Xrotation
					End Site
					{
						OFFSET 0.006600 -0.176220 0.000990 
					}
				}
			}
		}
		JOINT LeftShoulder
		{
			OFFSET 0.019635 0.377685 -0.194865 
			CHANNELS 3 Zrotation Xrotation Yrotation
			JOINT LeftElbow
			{
				OFFSET 0.000000 -0.243375 0.000000 
				CHANNELS 2 Zrotation Yrotation
				JOINT LeftWrist
				{
					OFFSET 0.000000 -0.264825 0.000000 
					CHANNELS 2 Zrotation Xrotation
					End Site
					{
						OFFSET 0.006600 -0.176220 -0.000990 
					}
				}
			}
		}
	}
	JOINT RightHip
	{
		OFFSET 0.052140 -0.069960 0.075570 
		CHANNELS 3 Zrotation Xrotation Yrotation
		JOINT RightKnee
		{
			OFFSET 0.000000 -0.402270 0.000000 
			CHANNELS 1 Zrotation
			JOINT RightAnkle
			{
				OFFSET 0.000000 -0.404085 0.000000 
				CHANNELS 3 Zrotation Xrotation Yrotation
				End Site
				{
					OFFSET 0.204105 -0.089430 0.008415 
				}
			}
		}
	}
	JOINT LeftHip
	{
		OFFSET 0.052140 -0.069960 -0.075570 
		CHANNELS 3 Zrotation Xrotation Yrotation
		JOINT LeftKnee
		{
			OFFSET 0.000000 -0.402270 0.000000 
			CHANNELS 1 Zrotation
			JOINT LeftAnkle
			{
				OFFSET 0.000000 -0.404085 0.000000 
				CHANNELS 3 Zrotation Xrotation Yrotation
				End Site
				{
					OFFSET 0.204105 -0.089430 -0.008415 
				}
			}
		}
	}
}
MOTION
Frames: 22
Frame Time: 0.02
0.00024 2e-05 4e-05 -179.50515 -39.02235 -3.83418 47.71264 3.2692 -2.41205 -13.6078 -1.73029 -0.14599 65.70429 -100.54683 64.16856 7.23018 92.26499 7.02868 -0.09847 169.88051 80.40851 54.69113 7.3906 -81.41503 -6.62371 3.25005 42.9624 -1.49792 -0.88449 -21.22611 -7.23846 -4.21565 -2.8868 48.06261 8.77171 0.0822 -27.2114 -7.08412 3.08685 2.27277
0.0002 2e-05 7e-05 -179.49687 -39.11682 -3.79984 47.81367 3.23809 -2.40635 -13.61581 -1.72713 -0.14626 65.8665 -100.52579 64.16883 7.21077 92.26431 7.01895 -0.09035 169.88064 80.40204 54.66572 7.3955 -81.4134 -6.62341 3.24433 43.08265 -1.56748 -1.04953 -21.26398 -7.22385 -4.19307 -2.87317 48.15085 8.76849 0.23159 -27.19226 -7.08356 3.06942 2.26192
0.00017 2e-05 0.00011 -179.4885 -39.21068 -3.76554 47.91406 3.20705 -2.40072 -13.62379 -1.72397 -0.14654 66.02825 -100.50484 64.16909 7.19142 92.26363 7.00923 -0.08226 169.88076 80.3956 54.64034 7.40038 -81.41177 -6.6231 3.23861 43.20216 -1.63675 -1.21344 -21.30174 -7.20932 -4.17063 -2.85963 48.23847 8.76519 0.38033 -27.17314 -7.083 3.05205 2.25111
0.00013 1e-05 0.00014 -179.48021 -39.30478 -3.73128 48.01469 3.17603 -2.39505 -13.63177 -1.72081 -0.14681 66.18996 -100.48387 64.16935 7.17207 92.26294 6.99953 -0.07417 169.88089 80.38915 54.61501 7.40526 -81.41015 -6.62279 3.23291 43.32194 -1.70607 -1.37778 -21.3395 -7.19477 -4.14815 -2.84606 48.32636 8.76196 0.52922 -27.15405 -7.08245 3.03467 2.24029
0.0001 1e-05 0.00017 -179.47208 -39.39968 -3.69702 48.11615 3.14496 -2.38928 -13.63978 -1.71765 -0.14707 66.35214 -100.46281 64.16962 7.15266 92.26226 6.98981 -0.06605 169.88102 80.38266 54.58963 7.41017 -81.40853 -6.6225 3.22722 43.44267 -1.77577 -1.54377 -21.37737 -7.1801 -4.12545 -2.83236 48.41509 8.75885 0.67886 -27.13494 -7.08189 3.01722 2.22942
6e-05 1e-05 0.0002 -179.46322 -39.4914 -3.66265 48.21434 3.11398 -2.38395 -13.64769 -1.71451 -0.1474 66.513 -100.44208 64.16988 7.13344 92.26158 6.98011 -0.05801 169.88114 80.37634 54.56426 7.415 -81.40688 -6.62214 3.22143 43.55966 -1.84415 -1.70342 -21.41489 -7.16586 -4.10354 -2.81913 48.50041 8.75516 0.82571 -27.11581 -7.08133 3.00003 2.21874
3e-05 1e-05 0.00023 -179.45578 -39.58923 -3.6285 48.31881 3.08285 -2.37776 -13.65578 -1.71132 -0.14758 66.67624 -100.42072 64.17015 7.11385 92.26089 6.97037 -0.04983 169.88127 80.36968 54.53899 7.41996 -81.4053 -6.62192 3.21586 43.68384 -1.91499 -1.87492 -21.45306 -7.15081 -4.08017 -2.80503 48.59229 8.7526 0.97794 -27.09673 -7.08077 2.98234 2.2077
-1e-05 1e-05 0.00027 -179.44713 -39.68175 -3.59419 48.41781 3.05188 -2.37232 -13.66372 -1.70817 -0.14789 66.83746 -100.39991 64.17041 7.0946 92.26021 6.96067 -0.04177 169.8814 80.36333 54.51345 7.42481 -81.40364 -6.62158 3.21007 43.80177 -1.98379 -2.03686 -21.49065 -7.13644 -4.05798 -2.79164 48.6785 8.74907 1.12533 -27.07763 -7.08022 2.9651 2.19698
-4e-05 1e-05 0.0003 -179.43657 -39.76646 -3.55949 48.50882 3.02099 -2.36798 -13.67143 -1.70511 -0.14839 66.9956 -100.3799 64.17066 7.07578 92.25953 6.95103 -0.0339 169.88152 80.35736 54.48824 7.42949 -81.40193 -6.62106 3.20408 43.91052 -2.04918 -2.18165 -21.52747 -7.12317 -4.03791 -2.77947 48.75624 8.74407 1.26637 -27.05838 -7.07966 2.94844 2.18667
-8e-05 1e-05 0.00033 -179.43569 -39.89215 -3.52645 48.64191 2.98928 -2.35787 -13.68032 -1.70166 -0.1479 67.16965 -100.35566 64.17097 7.05454 92.25884 6.94109 -0.02504 169.88167 80.34921 54.46312 7.43508 -81.40067 -6.62145 3.19945 44.06747 -2.13146 -2.40869 -21.56857 -7.1044 -4.00766 -2.76134 48.87808 8.74668 1.44263 -27.03965 -7.07907 2.92854 2.17406
-0.00011 1e-05 0.00036 -179.41523 -39.93395 -3.49032 48.68874 2.95952 -2.35955 -13.68679 -1.69893 -0.14945 67.31127 -100.34011 64.17116 7.03838 92.25818 6.93175 -0.01823 169.88175 80.34565 54.43655 7.43878 -81.39836 -6.62003 3.19178 44.1257 -2.17983 -2.47274 -21.60074 -7.09666 -3.99759 -2.75508 48.90986 8.73377 1.54543 -27.02002 -7.07859 2.91543 2.16627
-0.00011 1e-05 0.00041 -179.3335 -39.72143 -3.44209 48.47516 2.93327 -2.39715 -13.68616 -1.69916 -0.15703 67.35498 -100.35043 64.17097 7.03652 92.25748 6.92446 -0.01736 169.88163 80.35511 54.41683 7.43674 -81.39388 -6.61262 3.177 43.8853 -2.11962 -1.9958 -21.60728 -7.12423 -4.05449 -2.78784 48.66709 8.6734 1.43801 -26.9963 -7.0782 2.9213 2.17218
-0.0001 2e-05 0.00045 -179.23338 -39.42881 -3.39142 48.17899 2.90927 -2.44598 -13.68317 -1.69995 -0.16658 67.36863 -100.36905 64.17065 7.03968 92.25686 6.91773 -0.01849 169.88143 80.36915 54.39399 7.43281 -81.38823 -6.60358 3.15895 43.55056 -2.02787 -1.37084 -21.60507 -7.16203 -4.12974 -2.83145 48.33866 8.59841 1.25854 -26.97198 -7.07796 2.93391 2.18284
-0.0001 2e-05 0.00049 -179.14675 -39.18898 -3.34429 47.93654 2.88549 -2.48728 -13.68157 -1.6998 -0.17496 67.40081 -100.38262 64.17041 7.04039 92.25625 6.91048 -0.0185 169.88128 80.3808 54.36505 7.43024 -81.38263 -6.596 3.14155 43.27752 -1.96118 -0.87704 -21.60761 -7.19171 -4.18872 -2.86573 48.06775 8.53319 1.11757 -26.94904 -7.07779 2.94326 2.19107
-0.0001 2e-05 0.00056 -179.03893 -38.88112 -3.28699 47.62706 2.85664 -2.53861 -13.67867 -1.70244 -0.18448 67.40895 -100.40178 64.17012 7.04198 92.25535 6.90432 -0.01939 169.88108 80.39363 54.3664 7.42594 -81.37902 -6.58542 3.12758 42.92619 -1.85069 -0.12032 -21.6069 -7.23564 -4.28026 -2.91808 47.7195 8.45445 0.95177 -26.92149 -7.07701 2.95356 2.20051
-7e-05 3e-05 0.00056 -178.97025 -38.69432 -3.25018 47.43579 2.83865 -2.57199 -13.67788 -1.69953 -0.19211 67.46431 -100.41101 64.16988 7.04273 92.25518 6.89606 -0.01892 169.88096 80.40522 54.30574 7.4243 -81.37104 -6.58064 3.1058 42.71385 -1.82199 0.13279 -21.61084 -7.25282 -4.30953 -2.93601 47.51035 8.40076 0.82109 -26.90329 -7.07755 2.96332 2.20848
3e-05 4e-05 0.00041 -179.01944 -38.87608 -3.27149 47.60728 2.85214 -2.55068 -13.68369 -1.68018 -0.19394 67.62066 -100.39316 64.16985 7.04161 92.25609 6.88145 -0.01442 169.88108 80.41122 54.05946 7.43467 -81.35072 -6.5929 3.06234 42.92366 -2.04382 -1.11763 -21.63022 -7.18931 -4.152 -2.85079 47.72112 8.41672 0.80097 -26.91199 -7.08169 2.9714 2.21195
0.00016 7e-05 0.00019 -179.10762 -39.17979 -3.31329 47.89763 2.8761 -2.51135 -13.69166 -1.65547 -0.19381 67.83213 -100.36463 64.16987 7.03925 92.25791 6.86478 -0.00851 169.88128 80.41605 53.75411 7.44687 -81.3261 -6.6109 3.01128 43.27385 -2.34578 -2.86515 -21.65451 -7.09935 -3.93315 -2.73161 48.07219 8.45899 0.81936 -26.92994 -7.08716 2.97843 2.21364
0.00029 9e-05 -2e-05 -179.17453 -39.418 -3.34511 48.12298 2.89394 -2.48183 -13.69856 -1.63377 -0.19462 68.0429 -100.33937 64.16986 7.03626 92.2599 6.84933 -0.00304 169.88144 80.42203 53.48523 7.45563 -81.30388 -6.62593 2.96438 43.54968 -2.60012 -4.33562 -21.67626 -7.02432 -3.74908 -2.63149 48.34918 8.49126 0.82288 -26.94302 -7.09202 2.98498 2.21566
0.00038 0.00011 -0.00015 -179.25594 -39.69573 -3.37977 48.39168 2.91762 -2.44591 -13.70584 -1.60943 -0.19527 68.15114 -100.3209 64.16986 7.0381 92.25939 6.8327 0.00174 169.88162 80.42534 53.17396 7.47586 -81.27994 -6.64262 2.91457 43.86649 -2.90117 -6.01922 -21.69899 -6.93733 -3.53625 -2.5163 48.66632 8.51474 0.81312 -26.95888 -7.09688 2.99578 2.21984
0.00056 0.00014 -0.00047 -179.31643 -39.92143 -3.4133 48.59954 2.93157 -2.41884 -13.71277 -1.58961 -0.19578 68.48479 -100.28585 64.16987 7.03002 92.26434 6.81803 0.00804 169.88177 80.43411 52.93907 7.47204 -81.25833 -6.65703 2.86884 44.13293 -3.12371 -7.37589 -21.72095 -6.8689 -3.36881 -2.42448 48.93477 8.56296 0.84067 -26.97119 -7.10208 2.99742 2.21906
0.00097 0.0002 -0.00128 -179.31171 -39.97153 -3.43955 48.60956 2.91631 -2.42099 -13.71897 -1.58087 -0.19635 69.44089 -100.20572 64.16986 6.99116 92.28459 6.80916 0.02039 169.88182 80.45633 52.91475 7.40665 -81.24575 -6.66526 2.83795 44.22262 -3.11599 -7.7358 -21.73964 -6.85761 -3.33903 -2.40357 49.03066 8.67287 0.96489 -26.97108 -7.10759 2.97378 2.20476
